<?xml version="1.0" encoding="UTF-8" standalone="no"?>
<svg
   xmlns:dc="http://purl.org/dc/elements/1.1/"
   xmlns:cc="http://creativecommons.org/ns#"
   xmlns:rdf="http://www.w3.org/1999/02/22-rdf-syntax-ns#"
   xmlns:svg="http://www.w3.org/2000/svg"
   xmlns="http://www.w3.org/2000/svg"
   xmlns:sodipodi="http://sodipodi.sourceforge.net/DTD/sodipodi-0.dtd"
   xmlns:inkscape="http://www.inkscape.org/namespaces/inkscape"
   version="1.1"
   x="0px"
   y="0px"
   viewBox="0 0 512 640"
   enable-background="new 0 0 512 512"
   xml:space="preserve"
   id="svg2"
   inkscape:version="0.48.4 r9939"
   width="100%"
   height="100%"
   sodipodi:docname="image_noun_project.svg"><metadata
     id="metadata14"><rdf:RDF><cc:Work
         rdf:about=""><dc:format>image/svg+xml</dc:format><dc:type
           rdf:resource="http://purl.org/dc/dcmitype/StillImage" /><dc:title></dc:title></cc:Work></rdf:RDF></metadata><defs
     id="defs12" /><sodipodi:namedview
     pagecolor="#ffffff"
     bordercolor="#666666"
     borderopacity="1"
     objecttolerance="10"
     gridtolerance="10"
     guidetolerance="10"
     inkscape:pageopacity="0"
     inkscape:pageshadow="2"
     inkscape:window-width="771"
     inkscape:window-height="480"
     id="namedview10"
     showgrid="false"
     inkscape:zoom="0.36875"
     inkscape:cx="256"
     inkscape:cy="320"
     inkscape:window-x="10"
     inkscape:window-y="34"
     inkscape:window-maximized="0"
     inkscape:current-layer="svg2" /><path
     d="M448,32c17.656,0,32,14.375,32,32v288c0,17.656-14.344,32-32,32H64c-17.641,0-32-14.344-32-32V64c0-17.625,14.359-32,32-32  H448 M448,0H64C28.656,0,0,28.656,0,64v384c0,35.344,28.656,64,64,64h384c35.344,0,64-28.656,64-64V64C512,28.656,483.344,0,448,0  L448,0z M448,352L320.219,128L192.406,352H448z M198.797,276.188L159.875,224L64.406,352h91.156L198.797,276.188z M128,96  c-17.672,0-32,14.313-32,32s14.328,32,32,32s32-14.313,32-32S145.672,96,128,96z"
     id="path4"
     style="fill:#4b77be;fill-opacity:1"
     inkscape:export-filename="/home/juan/AndroidStudioProjects/VoltFeed/art/post_imagepng.png"
     inkscape:export-xdpi="112.5"
     inkscape:export-ydpi="112.5" /><text
     x="0"
     y="527"
     fill="#000000"
     font-size="5px"
     font-weight="bold"
     font-family="'Helvetica Neue', Helvetica, Arial-Unicode, Arial, Sans-serif"
     id="text6">Created by Simple Icons</text>
<text
     x="0"
     y="532"
     fill="#000000"
     font-size="5px"
     font-weight="bold"
     font-family="'Helvetica Neue', Helvetica, Arial-Unicode, Arial, Sans-serif"
     id="text8">from the Noun Project</text>
</svg>