<?xml version="1.0" encoding="UTF-8" standalone="no"?>
<svg
   xmlns:dc="http://purl.org/dc/elements/1.1/"
   xmlns:cc="http://creativecommons.org/ns#"
   xmlns:rdf="http://www.w3.org/1999/02/22-rdf-syntax-ns#"
   xmlns:svg="http://www.w3.org/2000/svg"
   xmlns="http://www.w3.org/2000/svg"
   xmlns:sodipodi="http://sodipodi.sourceforge.net/DTD/sodipodi-0.dtd"
   xmlns:inkscape="http://www.inkscape.org/namespaces/inkscape"
   version="1.1"
   x="0px"
   y="0px"
   viewBox="0 0 100 125"
   enable-background="new 0 0 100 100"
   xml:space="preserve"
   id="svg2"
   inkscape:version="0.48.4 r9939"
   width="100%"
   height="100%"
   sodipodi:docname="network_error_np.svg"><metadata
     id="metadata18"><rdf:RDF><cc:Work
         rdf:about=""><dc:format>image/svg+xml</dc:format><dc:type
           rdf:resource="http://purl.org/dc/dcmitype/StillImage" /><dc:title></dc:title></cc:Work></rdf:RDF></metadata><defs
     id="defs16" /><sodipodi:namedview
     pagecolor="#ffffff"
     bordercolor="#666666"
     borderopacity="1"
     objecttolerance="10"
     gridtolerance="10"
     guidetolerance="10"
     inkscape:pageopacity="0"
     inkscape:pageshadow="2"
     inkscape:window-width="771"
     inkscape:window-height="480"
     id="namedview14"
     showgrid="false"
     inkscape:zoom="1.888"
     inkscape:cx="50"
     inkscape:cy="62.5"
     inkscape:window-x="10"
     inkscape:window-y="24"
     inkscape:window-maximized="0"
     inkscape:current-layer="svg2" /><path
     fill="none"
     d="M82.059,48.162c0.162-1.059,0.248-2.145,0.248-3.246c0-11.358-9.203-20.562-20.56-20.562  c-9.29,0-17.135,6.155-19.691,14.613c-2.258-1.791-5.111-2.865-8.217-2.865c-6.803,0-12.41,5.141-13.142,11.75h-0.081v0.003  c-6.474,0-11.742,5.264-11.742,11.75c0,6.473,5.255,11.746,11.742,11.746h58.772c6.467,0,11.732-5.259,11.732-11.746  C91.122,54.046,87.252,49.373,82.059,48.162z M59.807,55.383c0,0.387-0.312,0.698-0.697,0.698h-4.635v4.636  c0,0.387-0.313,0.697-0.699,0.697h-3.937c-0.386,0-0.698-0.313-0.698-0.697v-4.636h-4.636c-0.386,0-0.698-0.313-0.698-0.698v-3.938  c0-0.385,0.313-0.697,0.698-0.697h4.636v-4.636c0-0.386,0.313-0.698,0.698-0.698h3.937c0.387,0,0.699,0.313,0.699,0.698v4.636h4.635  c0.387,0,0.697,0.313,0.697,0.697V55.383z"
     id="path4" /><path
     d="M88.18,44.341c-0.307-14.334-12.023-25.858-26.427-25.858c-9.502,0-17.826,5.006-22.49,12.526  c-1.715-0.505-3.535-0.777-5.415-0.777c-8.183,0-15.161,5.139-17.882,12.37C8.493,44.645,3.001,51.484,3.001,59.607  c0,9.713,7.889,17.623,17.623,17.623H79.37c9.735,0,17.628-7.893,17.631-17.623C97,53.093,93.455,47.386,88.18,44.341z   M79.389,71.35H20.616c-6.487,0-11.742-5.272-11.742-11.744c0-6.487,5.268-11.751,11.742-11.751v-0.003h0.081  c0.732-6.609,6.339-11.75,13.142-11.75c3.105,0,5.959,1.074,8.217,2.865c2.557-8.458,10.401-14.613,19.691-14.613  c11.354,0,20.56,9.204,20.56,20.562c0,1.102-0.086,2.188-0.248,3.246c5.193,1.211,9.063,5.885,9.063,11.442  C91.122,66.092,85.855,71.35,79.389,71.35z"
     id="path6"
     style="fill:#989898;fill-opacity:1"
     inkscape:export-filename="/home/juan/AndroidStudioProjects/VoltFeed/art/network_error.png"
     inkscape:export-xdpi="765.95746"
     inkscape:export-ydpi="765.95746" /><path
     d="M60.618,57.514l-4.1-4.099l4.098-4.098c0.341-0.341,0.342-0.894,0.002-1.233l-3.479-3.479  c-0.34-0.34-0.894-0.34-1.234,0.001l-4.098,4.098l-4.097-4.098c-0.341-0.341-0.893-0.342-1.234-0.001l-3.479,3.48  c-0.339,0.339-0.34,0.892,0.001,1.233l4.098,4.098l-4.099,4.1c-0.341,0.34-0.34,0.892,0,1.232l3.479,3.479  c0.34,0.339,0.892,0.34,1.232,0l4.099-4.1l4.099,4.1c0.341,0.34,0.894,0.339,1.232,0l3.479-3.48  C60.958,58.405,60.958,57.854,60.618,57.514z"
     id="path8"
     style="fill:#989898;fill-opacity:1"
     inkscape:export-filename="/home/juan/AndroidStudioProjects/VoltFeed/art/network_error.png"
     inkscape:export-xdpi="765.95746"
     inkscape:export-ydpi="765.95746" /><text
     x="0"
     y="115"
     fill="#000000"
     font-size="5px"
     font-weight="bold"
     font-family="'Helvetica Neue', Helvetica, Arial-Unicode, Arial, Sans-serif"
     id="text10">Created by Wilson Joseph</text>
<text
     x="0"
     y="120"
     fill="#000000"
     font-size="5px"
     font-weight="bold"
     font-family="'Helvetica Neue', Helvetica, Arial-Unicode, Arial, Sans-serif"
     id="text12">from the Noun Project</text>
</svg>