<?xml version="1.0" encoding="UTF-8" standalone="no"?>
<svg
   xmlns:dc="http://purl.org/dc/elements/1.1/"
   xmlns:cc="http://creativecommons.org/ns#"
   xmlns:rdf="http://www.w3.org/1999/02/22-rdf-syntax-ns#"
   xmlns:svg="http://www.w3.org/2000/svg"
   xmlns="http://www.w3.org/2000/svg"
   xmlns:sodipodi="http://sodipodi.sourceforge.net/DTD/sodipodi-0.dtd"
   xmlns:inkscape="http://www.inkscape.org/namespaces/inkscape"
   version="1.1"
   x="0px"
   y="0px"
   viewBox="0 0 100 125"
   enable-background="new 0 0 100 100"
   xml:space="preserve"
   id="svg2"
   inkscape:version="0.48.4 r9939"
   width="100%"
   height="100%"
   sodipodi:docname="noun_38705_cc.svg"><metadata
     id="metadata18"><rdf:RDF><cc:Work
         rdf:about=""><dc:format>image/svg+xml</dc:format><dc:type
           rdf:resource="http://purl.org/dc/dcmitype/StillImage" /><dc:title></dc:title></cc:Work></rdf:RDF></metadata><defs
     id="defs16" /><sodipodi:namedview
     pagecolor="#ffffff"
     bordercolor="#666666"
     borderopacity="1"
     objecttolerance="10"
     gridtolerance="10"
     guidetolerance="10"
     inkscape:pageopacity="0"
     inkscape:pageshadow="2"
     inkscape:window-width="771"
     inkscape:window-height="480"
     id="namedview14"
     showgrid="false"
     inkscape:zoom="1.888"
     inkscape:cx="50"
     inkscape:cy="62.5"
     inkscape:window-x="0"
     inkscape:window-y="24"
     inkscape:window-maximized="0"
     inkscape:current-layer="svg2" /><g
     id="g4"
     style="fill:#989898;fill-opacity:1"
     inkscape:export-filename="/home/juan/AndroidStudioProjects/VoltFeed/art/download.png"
     inkscape:export-xdpi="758.83411"
     inkscape:export-ydpi="758.83411"><path
       fill="#000000"
       d="M87.927,43.25C87.619,28.763,75.776,17.116,61.22,17.116c-9.603,0-18.016,5.06-22.729,12.66   c-1.733-0.51-3.573-0.785-5.473-0.785c-8.27,0-15.322,5.194-18.072,12.501C7.393,43.557,1.842,50.469,1.842,58.678   c0,9.816,7.973,17.811,17.811,17.811h14.331l0.008-5.942H19.645c-6.556,0-11.867-5.329-11.867-11.87   c0-6.557,5.324-11.876,11.867-11.876v-0.003h0.082c0.74-6.68,6.407-11.875,13.282-11.875c3.138,0,6.022,1.086,8.304,2.896   c2.584-8.548,10.513-14.769,19.901-14.769c11.477,0,20.778,9.302,20.778,20.782c0,1.113-0.087,2.211-0.251,3.281   c5.249,1.224,9.159,5.947,9.159,11.564c0,6.557-5.321,11.87-11.858,11.87H64.696l-0.011,5.942h14.339   c9.84,0,17.815-7.976,17.819-17.811C96.843,52.095,93.259,46.328,87.927,43.25z"
       id="path6"
       style="fill:#989898;fill-opacity:1" /><path
       fill="#000000"
       d="M63.659,66.79h-8.64V48.421c0-0.552-0.448-1-1-1h-9.335c-0.551,0-1,0.448-1,1L43.671,66.79h-8.641   c-0.316,0-0.584,0.184-0.699,0.48c-0.04,0.101-0.061,0.217-0.061,0.336c0,0.229,0.08,0.439,0.219,0.578l2.283,2.362l5.744,5.942   l6.299,6.517c0.276,0.277,0.772,0.286,1.065-0.009l6.29-6.508l5.743-5.942l2.271-2.351c0.224-0.229,0.29-0.608,0.166-0.928   C64.241,66.976,63.968,66.79,63.659,66.79z"
       id="path8"
       style="fill:#989898;fill-opacity:1" /></g><text
     x="0"
     y="115"
     fill="#000000"
     font-size="5px"
     font-weight="bold"
     font-family="'Helvetica Neue', Helvetica, Arial-Unicode, Arial, Sans-serif"
     id="text10">Created by Wilson Joseph</text>
<text
     x="0"
     y="120"
     fill="#000000"
     font-size="5px"
     font-weight="bold"
     font-family="'Helvetica Neue', Helvetica, Arial-Unicode, Arial, Sans-serif"
     id="text12">from the Noun Project</text>
</svg>