<?xml version="1.0" encoding="UTF-8" standalone="no"?>
<svg
   xmlns:sketch="http://www.bohemiancoding.com/sketch/ns"
   xmlns:dc="http://purl.org/dc/elements/1.1/"
   xmlns:cc="http://creativecommons.org/ns#"
   xmlns:rdf="http://www.w3.org/1999/02/22-rdf-syntax-ns#"
   xmlns:svg="http://www.w3.org/2000/svg"
   xmlns="http://www.w3.org/2000/svg"
   xmlns:sodipodi="http://sodipodi.sourceforge.net/DTD/sodipodi-0.dtd"
   xmlns:inkscape="http://www.inkscape.org/namespaces/inkscape"
   viewBox="0 0 100 125"
   version="1.1"
   x="0px"
   y="0px"
   id="svg2"
   inkscape:version="0.48.4 r9939"
   width="100%"
   height="100%"
   sodipodi:docname="spinner_np.svg">
  <metadata
     id="metadata22">
    <rdf:RDF>
      <cc:Work
         rdf:about="">
        <dc:format>image/svg+xml</dc:format>
        <dc:type
           rdf:resource="http://purl.org/dc/dcmitype/StillImage" />
        <dc:title>Loading</dc:title>
      </cc:Work>
    </rdf:RDF>
  </metadata>
  <defs
     id="defs20" />
  <sodipodi:namedview
     pagecolor="#ffffff"
     bordercolor="#666666"
     borderopacity="1"
     objecttolerance="10"
     gridtolerance="10"
     guidetolerance="10"
     inkscape:pageopacity="0"
     inkscape:pageshadow="2"
     inkscape:window-width="771"
     inkscape:window-height="480"
     id="namedview18"
     showgrid="false"
     inkscape:zoom="1.888"
     inkscape:cx="50"
     inkscape:cy="62.5"
     inkscape:window-x="10"
     inkscape:window-y="24"
     inkscape:window-maximized="0"
     inkscape:current-layer="svg2" />
  <title
     id="title4">Loading</title>
  <description
     id="description6">Created with Sketch (http://www.bohemiancoding.com/sketch)</description>
  <g
     sketch:type="MSPage"
     id="g8"
     style="fill:#989898;fill-opacity:1;fill-rule:evenodd;stroke:none"
     inkscape:export-filename="/home/juan/AndroidStudioProjects/VoltFeed/art/timeline_spinner.png"
     inkscape:export-xdpi="1045.6633"
     inkscape:export-ydpi="1045.6633"
     transform="matrix(-1,0,0,1,97.713054,0)">
    <g
       sketch:type="MSArtboardGroup"
       id="g10"
       style="fill:#989898;fill-opacity:1">
      <path
         d="m 30.5,41.633745 c 4.142136,0 7.5,-4.253295 7.5,-9.5 0,-5.246706 -3.357864,-9.5 -7.5,-9.5 -4.142136,0 -7.5,4.253294 -7.5,9.5 0,5.246705 3.357864,9.5 7.5,9.5 z M 44.75246,29.995473 c 2.60673,3.219045 8.025333,3.15191 12.102789,-0.149949 4.077456,-3.301858 5.269714,-8.588094 2.662984,-11.807138 -2.606731,-3.219044 -8.025334,-3.15191 -12.10279,0.149949 -4.077456,3.301859 -5.269714,8.588094 -2.662983,11.807138 z m 18.30885,3.980468 c -0.931777,4.035973 2.457151,8.264558 7.569383,9.44481 5.112233,1.180252 10.011871,-1.134767 10.943649,-5.17074 0.931777,-4.035973 -2.45715,-8.264559 -7.569383,-9.444811 -5.112233,-1.180252 -10.011871,1.134768 -10.943649,5.170741 z m 8.133878,16.505211 c -3.722927,1.815793 -4.876434,7.11062 -2.57643,11.826327 2.300004,4.715708 7.182554,7.066553 10.905481,5.25076 3.722928,-1.815793 4.876434,-7.110619 2.57643,-11.826327 -2.300004,-4.715707 -7.182554,-7.066553 -10.905481,-5.25076 z m -7.997044,16.944186 c -3.722927,-1.815793 -8.605477,0.535052 -10.905481,5.25076 -2.300004,4.715708 -1.146498,10.010534 2.576429,11.826327 3.722927,1.815793 8.605477,-0.535052 10.905482,-5.25076 2.300004,-4.715707 1.146497,-10.010534 -2.57643,-11.826327 z M 45.286236,71.63788 c -0.931778,-4.035973 -5.831416,-6.350992 -10.943649,-5.170741 -5.112232,1.180252 -8.50116,5.408838 -7.569382,9.444811 0.931777,4.035973 5.831416,6.350992 10.943648,5.17074 5.112233,-1.180251 8.501161,-5.408837 7.569383,-9.44481 z M 30.575272,60.034188 c 2.606731,-3.219045 1.414472,-8.50528 -2.662984,-11.807139 -4.077456,-3.301859 -9.496059,-3.368993 -12.102789,-0.149949 -2.606731,3.219044 -1.414472,8.50528 2.662983,11.807139 4.077456,3.301858 9.496059,3.368993 12.10279,0.149949 z m 0,0"
         sketch:type="MSShapeGroup"
         id="path12"
         style="fill:#989898;fill-opacity:1"
         inkscape:connector-curvature="0" />
    </g>
  </g>
  <text
     x="0"
     y="115"
     fill="#000000"
     font-size="5px"
     font-weight="bold"
     font-family="'Helvetica Neue', Helvetica, Arial-Unicode, Arial, Sans-serif"
     id="text14">Created by Nurutdinov Timur</text>
  <text
     x="0"
     y="120"
     fill="#000000"
     font-size="5px"
     font-weight="bold"
     font-family="'Helvetica Neue', Helvetica, Arial-Unicode, Arial, Sans-serif"
     id="text16">from the Noun Project</text>
</svg>
