<?xml version="1.0" encoding="UTF-8" standalone="no"?>
<svg
   xmlns:dc="http://purl.org/dc/elements/1.1/"
   xmlns:cc="http://creativecommons.org/ns#"
   xmlns:rdf="http://www.w3.org/1999/02/22-rdf-syntax-ns#"
   xmlns:svg="http://www.w3.org/2000/svg"
   xmlns="http://www.w3.org/2000/svg"
   xmlns:sodipodi="http://sodipodi.sourceforge.net/DTD/sodipodi-0.dtd"
   xmlns:inkscape="http://www.inkscape.org/namespaces/inkscape"
   version="1.1"
   x="0px"
   y="0px"
   viewBox="0 0 100 125"
   enable-background="new 0 0 100 100"
   xml:space="preserve"
   id="svg2"
   inkscape:version="0.48.4 r9939"
   width="100%"
   height="100%"
   sodipodi:docname="thought_noun_project.svg"><metadata
     id="metadata22"><rdf:RDF><cc:Work
         rdf:about=""><dc:format>image/svg+xml</dc:format><dc:type
           rdf:resource="http://purl.org/dc/dcmitype/StillImage" /><dc:title></dc:title></cc:Work></rdf:RDF></metadata><defs
     id="defs20" /><sodipodi:namedview
     pagecolor="#ffffff"
     bordercolor="#666666"
     borderopacity="1"
     objecttolerance="10"
     gridtolerance="10"
     guidetolerance="10"
     inkscape:pageopacity="0"
     inkscape:pageshadow="2"
     inkscape:window-width="771"
     inkscape:window-height="480"
     id="namedview18"
     showgrid="false"
     inkscape:zoom="1.888"
     inkscape:cx="50"
     inkscape:cy="62.5"
     inkscape:window-x="10"
     inkscape:window-y="34"
     inkscape:window-maximized="0"
     inkscape:current-layer="svg2" /><g
     id="g4"
     style="fill:#db0a5b;fill-opacity:1"
     inkscape:export-filename="/home/juan/AndroidStudioProjects/VoltFeed/art/post_thought.png"
     inkscape:export-xdpi="640"
     inkscape:export-ydpi="640"><g
       id="g6"
       style="fill:#db0a5b;fill-opacity:1"><path
         d="M11.572,88.279c-1.854,0-3.359,1.502-3.359,3.356c0,1.859,1.506,3.363,3.359,3.363c1.855,0,3.359-1.504,3.359-3.363    C14.932,89.781,13.428,88.279,11.572,88.279z"
         id="path8"
         style="fill:#db0a5b;fill-opacity:1" /><circle
         cx="19.857"
         cy="79.405"
         r="5.368"
         id="circle10"
         style="fill:#db0a5b;fill-opacity:1" /><path
         d="M92.828,34.385c0-9.236-7.486-16.721-16.723-16.721c-0.642,0-1.271,0.043-1.894,0.115C72.879,10.512,66.521,5,58.869,5    c-5.531,0-10.381,2.885-13.154,7.227c-3.096-3.16-7.404-5.129-12.176-5.129c-9.414,0-17.043,7.631-17.043,17.043    c0,1.354,0.174,2.666,0.469,3.928c-5.76,2.514-9.793,8.256-9.793,14.945c0,7.966,5.721,14.591,13.277,16.016    c-0.016,0.225-0.037,0.446-0.037,0.676c0,5.914,4.793,10.707,10.705,10.707c2.963,0,5.645-1.203,7.582-3.149    c2.977,4.606,8.15,7.663,14.043,7.663c7.266,0,13.432-4.641,15.736-11.112c1.481,0.774,3.164,1.221,4.953,1.221    c5.911,0,10.705-4.795,10.705-10.707c0-1.703-0.408-3.305-1.113-4.734C88.803,46.961,92.828,41.15,92.828,34.385z"
         id="path12"
         style="fill:#db0a5b;fill-opacity:1" /></g></g><text
     x="0"
     y="115"
     fill="#000000"
     font-size="5px"
     font-weight="bold"
     font-family="'Helvetica Neue', Helvetica, Arial-Unicode, Arial, Sans-serif"
     id="text14">Created by Juan Pablo Bravo</text>
<text
     x="0"
     y="120"
     fill="#000000"
     font-size="5px"
     font-weight="bold"
     font-family="'Helvetica Neue', Helvetica, Arial-Unicode, Arial, Sans-serif"
     id="text16">from the Noun Project</text>
</svg>