<?xml version="1.0" encoding="UTF-8" standalone="no"?>
<svg
   xmlns:dc="http://purl.org/dc/elements/1.1/"
   xmlns:cc="http://creativecommons.org/ns#"
   xmlns:rdf="http://www.w3.org/1999/02/22-rdf-syntax-ns#"
   xmlns:svg="http://www.w3.org/2000/svg"
   xmlns="http://www.w3.org/2000/svg"
   xmlns:sodipodi="http://sodipodi.sourceforge.net/DTD/sodipodi-0.dtd"
   xmlns:inkscape="http://www.inkscape.org/namespaces/inkscape"
   version="1.1"
   x="0px"
   y="0px"
   viewBox="0 0 100 125"
   enable-background="new 0 0 100 100"
   xml:space="preserve"
   id="svg2"
   inkscape:version="0.48.4 r9939"
   width="100%"
   height="100%"
   sodipodi:docname="connected_np.svg"><metadata
     id="metadata30"><rdf:RDF><cc:Work
         rdf:about=""><dc:format>image/svg+xml</dc:format><dc:type
           rdf:resource="http://purl.org/dc/dcmitype/StillImage" /><dc:title></dc:title></cc:Work></rdf:RDF></metadata><defs
     id="defs28" /><sodipodi:namedview
     pagecolor="#ffffff"
     bordercolor="#666666"
     borderopacity="1"
     objecttolerance="10"
     gridtolerance="10"
     guidetolerance="10"
     inkscape:pageopacity="0"
     inkscape:pageshadow="2"
     inkscape:window-width="771"
     inkscape:window-height="480"
     id="namedview26"
     showgrid="false"
     inkscape:zoom="1.888"
     inkscape:cx="-48.516949"
     inkscape:cy="62.5"
     inkscape:window-x="10"
     inkscape:window-y="24"
     inkscape:window-maximized="0"
     inkscape:current-layer="svg2" /><g
     id="g4"
     style="fill:#ebeff0;fill-opacity:1"
     inkscape:export-filename="/home/juan/AndroidStudioProjects/VoltFeed/art/PNG/connected.png"
     inkscape:export-xdpi="91.075203"
     inkscape:export-ydpi="91.075203"><path
       d="M32.5,51.1l1.4-0.1c-0.6-0.3-0.9-0.5-1.2-0.7c1,0.3,3.4-1.3,3.4-1.3c-3.8-1.2-1.2-5.4-1.1-10c0.1-3.8,0.6-11.8-3.4-14.8   c-1.2-0.9-2.2,0-2.2,0c-0.3-4.3-9.7-4.6-14.2-2c-2,1.2-3.6,2-5.8,5.9c-2.2,3.8-0.5,11.3,1.3,14.1C12.5,45,11,45.8,9.3,47   C7.9,48.1,5,47.2,5,47.2s0.3,1.6,1.4,2.3c1.9,1.1,2.7,0.4,1.9,1.1c0,0-1.1,0.7,1.3,2.4l1.5-0.1c-1.1,1-1.7,2.2-0.6,3.4   c3,3.1,10.2,11.1,10.2,11.1s1.2,1.6,2.8,0.8l-0.2,0.2c0.5-0.1,1-0.3,1.5-0.9c2.3-2.1,10-11,10-11S38.3,53.9,32.5,51.1z M32.4,49.8   L32.4,49.8L32.4,49.8z M29.4,62.4c0.3-0.3,0.5-0.6,0.7-0.8C30,61.8,29.8,62.1,29.4,62.4z"
       id="path6"
       style="fill:#ebeff0;fill-opacity:1" /><path
       d="M91.4,51.1l1.4-0.1c-0.6-0.3-0.9-0.5-1.1-0.7c1,0.3,3.4-1.2,3.4-1.2c-3.8-1.2-1.2-5.4-1.1-10c0.1-3.8,0.6-11.8-3.4-14.8   c-1.2-0.9-2.2,0-2.2,0c-0.3-4.3-9.7-4.6-14.2-2c-2,1.2-3.6,2-5.8,5.9c-2.2,3.7-0.5,11.3,1.3,14.1c1.8,2.8,0.3,3.6-1.4,4.8   c-1.5,1.1-4.3,0.2-4.3,0.2s0.3,1.6,1.4,2.3c1.9,1.1,2.7,0.4,1.9,1.1c0,0-1.1,0.7,1.3,2.4l1.5-0.1c-1.1,1-1.7,2.2-0.6,3.4   c3,3.1,10.3,11.1,10.3,11.1s1.2,1.6,2.9,0.8l-0.2,0.2c0.5-0.1,1-0.3,1.5-0.9c2.3-2.1,10-11,10-11S97.1,53.9,91.4,51.1z M91.2,49.8   L91.2,49.8L91.2,49.8z M88.3,62.4c0.2-0.3,0.5-0.6,0.7-0.8C88.8,61.8,88.6,62.1,88.3,62.4z"
       id="path8"
       style="fill:#ebeff0;fill-opacity:1" /><path
       d="M56.2,55.6L56.2,55.6l0.3-0.2l0.3-0.2L57,55l0.3-0.2l0.2-0.2l0.3-0.3l0.2-0.2l0.3-0.3l0.2-0.2l0.3-0.3l0.2-0.3l0.2-0.3   l0.2-0.3l0.2-0.3l0.2-0.3l0.2-0.3l0.2-0.3l0.2-0.3l0.2-0.3l0.2-0.3l0.2-0.3l0.2-0.3l0.2-0.3l0.2-0.3l0.2-0.4l0.1-0.3l0.2-0.4   l0.1-0.2l0.2,0.2c0.6,0.3,1.5-0.7,2.2-2.1c0.6-1.4,0.7-2.8,0.1-3c-0.4-0.2-0.9,0.2-1.4,0.8l-0.5-0.1l0.5,0.1   C64.9,32.1,60.1,26,60.1,26s-0.3-6.1-2.5-5c-1.9,0.9-2.3,0.8-2.3,0.8s-1.1-5.5-2.8-2.6c-0.9,1.5-6,1.8-10.2,5.5   c-7,6.1-4.7,17.3-4.4,18.9c-0.4-0.5-0.8-0.8-1.1-0.7c-0.6,0.2-0.7,1.6-0.2,3c0.5,1.5,1.4,2.5,2,2.3c0.2-0.1,0.4-0.3,0.4-0.6   c1.4,3.5,4.2,6.5,6.8,8.3c-0.9,0.2-1.5,0.4-1.5,0.4s-10.8,3.9-7.3,7.7C40.3,67.7,49,77.1,49,77.1s1.1,1.5,2.8,1.2l0,0l0.1,0   l0.3-0.1l0.2-0.1l0.3-0.1l0.2-0.2l0.2-0.1l0.5-0.4c2.7-2.5,11.8-13.1,11.8-13.1S71.4,59.5,56.2,55.6z"
       id="path10"
       style="fill:#ebeff0;fill-opacity:1" /><path
       d="M51.4,73C46.2,73,42,75,42,77.3c0,2.4,4.2,4.3,9.4,4.3c5.2,0,9.4-1.9,9.4-4.3C60.9,75,56.6,73,51.4,73z M51.4,79.7   c-3.4,0-6.1-1.2-6.1-2.8c0-1.5,2.7-2.8,6.1-2.8c3.4,0,6.1,1.2,6.1,2.8C57.6,78.5,54.8,79.7,51.4,79.7z"
       id="path12"
       style="fill:#ebeff0;fill-opacity:1" /><path
       d="M81.8,66.5c-3.3,0-6.1,1.2-6.1,2.8c0,1.5,2.7,2.8,6.1,2.8c3.3,0,6.1-1.2,6.1-2.8C87.8,67.8,85.1,66.5,81.8,66.5z    M81.8,70.9c-2.2,0-3.9-0.8-3.9-1.8c0-1,1.8-1.8,3.9-1.8c2.2,0,3.9,0.8,3.9,1.8C85.7,70.1,83.9,70.9,81.8,70.9z"
       id="path14"
       style="fill:#ebeff0;fill-opacity:1" /><path
       d="M22.7,66.5c-3.3,0-6.1,1.2-6.1,2.8c0,1.5,2.7,2.8,6.1,2.8c3.3,0,6.1-1.2,6.1-2.8C28.8,67.8,26.1,66.5,22.7,66.5z    M22.7,70.9c-2.2,0-3.9-0.8-3.9-1.8c0-1,1.8-1.8,3.9-1.8c2.2,0,3.9,0.8,3.9,1.8C26.7,70.1,24.9,70.9,22.7,70.9z"
       id="path16"
       style="fill:#ebeff0;fill-opacity:1" /><path
       d="M38.4,79.9c-0.5,0-1.1,0-1.6,0c-0.5,0-0.9-0.5-0.9-1c0-0.5,0.5-1,1-0.9c0.9,0,1.9,0,2.9,0c0.5,0,1,0.4,1,0.9   c0,0.5-0.4,1-0.9,1C39.4,79.9,38.9,79.9,38.4,79.9z M33,79.4l-0.2,0c-1.3-0.2-2.6-0.6-3.9-1c-0.5-0.2-0.8-0.7-0.6-1.2   s0.7-0.8,1.2-0.6c1.1,0.4,2.4,0.7,3.6,0.9c0.5,0.1,0.9,0.6,0.8,1.1C33.9,79.1,33.5,79.4,33,79.4z M25.7,77l-0.5-0.1   c-2.2-1.2-3.3-2.3-3.4-2.4c-0.4-0.4-0.4-1,0-1.4c0.4-0.4,1-0.4,1.4,0c0,0,1,1,2.9,2c0.5,0.3,0.6,0.8,0.4,1.3   C26.4,76.8,26.1,77,25.7,77z"
       id="path18"
       style="fill:#ebeff0;fill-opacity:1" /><path
       d="M62.5,79.9c-0.5,0-1-0.5-0.9-1c0-0.5,0.5-0.9,1-0.9c1,0,2,0,2.9,0c0.5-0.1,1,0.4,1,0.9c0,0.5-0.4,1-0.9,1   c-0.5,0-1.1,0-1.6,0C63.5,79.9,63,79.9,62.5,79.9z M68.4,78.6c-0.1-0.5,0.3-1,0.8-1.1c1.2-0.2,2.5-0.5,3.6-0.9   c0.5-0.2,1.1,0.1,1.2,0.6c0.2,0.5-0.1,1.1-0.6,1.2c-1.2,0.4-2.5,0.7-3.9,1l-0.2,0C68.9,79.4,68.5,79.1,68.4,78.6z M75.8,76.5   c-0.3-0.5-0.1-1,0.4-1.3c1.9-1.1,2.9-2,2.9-2c0.4-0.4,1-0.4,1.4,0c0.4,0.4,0.4,1,0,1.4c-0.1,0-1.2,1.2-3.4,2.4L76.6,77   C76.3,77,75.9,76.8,75.8,76.5z"
       id="path20"
       style="fill:#ebeff0;fill-opacity:1" /></g><text
     x="0"
     y="115"
     fill="#000000"
     font-size="5px"
     font-weight="bold"
     font-family="'Helvetica Neue', Helvetica, Arial-Unicode, Arial, Sans-serif"
     id="text22">Created by Hysen Drogu</text>
<text
     x="0"
     y="120"
     fill="#000000"
     font-size="5px"
     font-weight="bold"
     font-family="'Helvetica Neue', Helvetica, Arial-Unicode, Arial, Sans-serif"
     id="text24">from the Noun Project</text>
</svg>