<?xml version="1.0" encoding="UTF-8" standalone="no"?>
<svg
   xmlns:dc="http://purl.org/dc/elements/1.1/"
   xmlns:cc="http://creativecommons.org/ns#"
   xmlns:rdf="http://www.w3.org/1999/02/22-rdf-syntax-ns#"
   xmlns:svg="http://www.w3.org/2000/svg"
   xmlns="http://www.w3.org/2000/svg"
   xmlns:sodipodi="http://sodipodi.sourceforge.net/DTD/sodipodi-0.dtd"
   xmlns:inkscape="http://www.inkscape.org/namespaces/inkscape"
   version="1.1"
   x="0px"
   y="0px"
   viewBox="0 0 100 125"
   enable-background="new 0 0 100 100"
   xml:space="preserve"
   id="svg2"
   inkscape:version="0.48.4 r9939"
   width="100%"
   height="100%"
   sodipodi:docname="connect_np.svg"><metadata
     id="metadata22"><rdf:RDF><cc:Work
         rdf:about=""><dc:format>image/svg+xml</dc:format><dc:type
           rdf:resource="http://purl.org/dc/dcmitype/StillImage" /><dc:title></dc:title></cc:Work></rdf:RDF></metadata><defs
     id="defs20" /><sodipodi:namedview
     pagecolor="#ffffff"
     bordercolor="#666666"
     borderopacity="1"
     objecttolerance="10"
     gridtolerance="10"
     guidetolerance="10"
     inkscape:pageopacity="0"
     inkscape:pageshadow="2"
     inkscape:window-width="921"
     inkscape:window-height="523"
     id="namedview18"
     showgrid="false"
     inkscape:zoom="1.888"
     inkscape:cx="-48.516949"
     inkscape:cy="62.5"
     inkscape:window-x="10"
     inkscape:window-y="24"
     inkscape:window-maximized="0"
     inkscape:current-layer="svg2" /><g
     id="g4"
     style="fill:#f25a6b;fill-opacity:1"
     inkscape:export-filename="/home/juan/AndroidStudioProjects/VoltFeed/art/PNG/connect.png"
     inkscape:export-xdpi="64.030312"
     inkscape:export-ydpi="64.030312"><path
       d="M41,83v-5V64.1V60h2.8l0.3-0.5l0.4-0.5l0.3-0.4l0.4-0.4l0.4-0.4l0.4-0.4l0.4-0.4l0.4-0.4l0.4-0.4l0.4-0.4l0.4-0.4l0.3-0.4   l0.4-0.5l0.3-0.4l0.3-0.5l0.3-0.4l0.3-0.5l0.3-0.5l0.3-0.5l0.2-0.5l0.3-0.5l0.2-0.5l0.3-0.6l0.1-0.2l0.4,0.4c0.9,0.4,2.3-0.9,3.2-3   l0.2-0.3l0.3-0.6l0,0c0.6-2.3,0.5-3.4-0.2-3.8c-0.6-0.2-1.3,0.2-2.1,1.1l-0.7-0.2l0.7,0.2c2-17.6-5.2-26.7-5.2-26.7   S47.4,7.3,44.1,9c-2.8,1.4-3.5,1.2-3.5,1.2S39,1.9,36.4,6.3c-1.4,2.3-9,2.7-15.4,8.2c-10.5,9.1-7.1,26-6.6,28.4   c-0.6-0.8-1.2-1.2-1.7-1c-0.9,0.3-1,2.3-0.3,4.5c0.7,2.2,2.1,3.8,3,3.5c0.3-0.1,0.5-0.4,0.7-0.9c2.2,5.3,6.3,9.7,10.2,12.4   c-1.4,0.3-2.3,0.5-2.3,0.5s-16.3,5.9-11,11.5c5.2,5.6,19,19.7,19,19.7s1,2.3,5,1.8v0l-0.6-0.1l0-0.1l0.1-0.1l0.3-0.2l0.3-0.2   l0.3-0.2l0.7-0.4c1.9-1.8,6.1-6.6,10-10.6h-2H41z"
       id="path6"
       style="fill:#f25a6b;fill-opacity:1" /><path
       d="M55.4,45.7C55.4,45.7,55.4,45.6,55.4,45.7L55.4,45.7L55.4,45.7z"
       id="path8"
       style="fill:#f25a6b;fill-opacity:1" /><g
       id="g10"
       style="fill:#f25a6b;fill-opacity:1"><polygon
         points="74.2,64.4 74.2,59.6 74.2,57.5 74.2,50.5 68.8,50.5 60.3,50.5 60.3,64.4 46.4,64.4 46.4,78.3 57.6,78.3     60.3,78.3 60.3,92.2 74.2,92.2 74.2,78.3 88.1,78.3 88.1,64.4   "
         id="polygon12"
         style="fill:#f25a6b;fill-opacity:1" /></g></g><text
     x="0"
     y="115"
     fill="#000000"
     font-size="5px"
     font-weight="bold"
     font-family="'Helvetica Neue', Helvetica, Arial-Unicode, Arial, Sans-serif"
     id="text14">Created by Hysen Drogu</text>
<text
     x="0"
     y="120"
     fill="#000000"
     font-size="5px"
     font-weight="bold"
     font-family="'Helvetica Neue', Helvetica, Arial-Unicode, Arial, Sans-serif"
     id="text16">from the Noun Project</text>
</svg>