<?xml version="1.0" encoding="UTF-8" standalone="no"?>
<svg
   xmlns:dc="http://purl.org/dc/elements/1.1/"
   xmlns:cc="http://creativecommons.org/ns#"
   xmlns:rdf="http://www.w3.org/1999/02/22-rdf-syntax-ns#"
   xmlns:svg="http://www.w3.org/2000/svg"
   xmlns="http://www.w3.org/2000/svg"
   xmlns:sodipodi="http://sodipodi.sourceforge.net/DTD/sodipodi-0.dtd"
   xmlns:inkscape="http://www.inkscape.org/namespaces/inkscape"
   version="1.1"
   x="0px"
   y="0px"
   viewBox="0 0 100 125"
   enable-background="new 0 0 100 100"
   xml:space="preserve"
   id="svg2"
   inkscape:version="0.48.4 r9939"
   width="100%"
   height="100%"
   sodipodi:docname="connections_np.svg"><metadata
     id="metadata20"><rdf:RDF><cc:Work
         rdf:about=""><dc:format>image/svg+xml</dc:format><dc:type
           rdf:resource="http://purl.org/dc/dcmitype/StillImage" /><dc:title></dc:title></cc:Work></rdf:RDF></metadata><defs
     id="defs18" /><sodipodi:namedview
     pagecolor="#ffffff"
     bordercolor="#666666"
     borderopacity="1"
     objecttolerance="10"
     gridtolerance="10"
     guidetolerance="10"
     inkscape:pageopacity="0"
     inkscape:pageshadow="2"
     inkscape:window-width="771"
     inkscape:window-height="480"
     id="namedview16"
     showgrid="false"
     inkscape:zoom="1.888"
     inkscape:cx="-48.516949"
     inkscape:cy="62.5"
     inkscape:window-x="0"
     inkscape:window-y="24"
     inkscape:window-maximized="0"
     inkscape:current-layer="svg2" /><g
     id="g4"
     style="fill:#f25a6b;fill-opacity:1"
     inkscape:export-filename="/home/juan/AndroidStudioProjects/VoltFeed/art/PNG/connections_on.png"
     inkscape:export-xdpi="179.43925"
     inkscape:export-ydpi="179.43925"><path
       fill-rule="evenodd"
       clip-rule="evenodd"
       d="M60.9,17.9C43,17.9,28.6,32.2,28.6,50c0,17.8,14.5,32.1,32.3,32.1   S93.2,67.8,93.2,50C93.2,32.2,78.7,17.9,60.9,17.9z M60.9,78.4c-15.8,0-28.6-12.7-28.6-28.4c0-15.7,12.8-28.4,28.6-28.4   c15.8,0,28.6,12.7,28.6,28.4C89.4,65.7,76.6,78.4,60.9,78.4z"
       id="path6"
       style="fill:#f25a6b;fill-opacity:1" /><path
       fill-rule="evenodd"
       clip-rule="evenodd"
       d="M39.1,17.9C21.3,17.9,6.8,32.2,6.8,50c0,17.8,14.5,32.1,32.3,32.1   C57,82.1,71.4,67.8,71.4,50C71.4,32.2,57,17.9,39.1,17.9z M39.1,78.4c-15.8,0-28.6-12.7-28.6-28.4c0-15.7,12.8-28.4,28.6-28.4   c15.8,0,28.6,12.7,28.6,28.4C67.7,65.7,54.9,78.4,39.1,78.4z"
       id="path8"
       style="fill:#f25a6b;fill-opacity:1" /><path
       fill-rule="evenodd"
       clip-rule="evenodd"
       d="M55.9,62.7c-1.3-0.7-0.9-4.8-0.9-4.8l0.9-0.7c0,0,0.2-1.8,0.6-2.5   c0.9-1.5,1.8-4,1.8-4s0.9-0.6,0.9-1.6c0-1-0.9-1.6-0.9-1.6s0.3-2.8,0.3-4.8c0-4.1-2.9-6.4-8.1-6.4c-5.2,0-9,1.9-9,6.4   c0,2,0.7,4.8,0.7,4.8s-0.9,0.6-0.9,1.6c0,1,0.9,1.6,0.9,1.6s1,2.9,1.8,4c0.4,0.6,0.6,2.5,0.6,2.5l0.9,0.7c0,0,0.4,4.1-0.9,4.8   c-1.2,0.7-4,0.7-5.2,1.4c0.1,0.1,6.2,7.7,10.9,8.9c4.8-1,10.1-8.9,10.1-8.9C59.2,63.4,57.1,63.4,55.9,62.7z"
       id="path10"
       style="fill:#f25a6b;fill-opacity:1" /></g><text
     x="0"
     y="115"
     fill="#000000"
     font-size="5px"
     font-weight="bold"
     font-family="'Helvetica Neue', Helvetica, Arial-Unicode, Arial, Sans-serif"
     id="text12">Created by Umesh Vgl</text>
<text
     x="0"
     y="120"
     fill="#000000"
     font-size="5px"
     font-weight="bold"
     font-family="'Helvetica Neue', Helvetica, Arial-Unicode, Arial, Sans-serif"
     id="text14">from the Noun Project</text>
</svg>