<svg xmlns="http://www.w3.org/2000/svg" xmlns:xlink="http://www.w3.org/1999/xlink" version="1.1" x="0px" y="0px" viewBox="0 0 100 125" enable-background="new 0 0 100 100" xml:space="preserve"><g><path fill="#000000" d="M93.223,61.662c-2.127-3.809-5.682-7.786-5.682-15.374c0-22.685-18.385-40.685-40.906-40.685   c-22.591,0-40.907,18.316-40.907,40.91c0,13.384,6.425,25.266,16.364,32.729v16.361h24.542h16.367h2.45   c0-4.52,3.662-8.181,8.184-8.181c6.776,0,12.272-5.496,12.272-12.273V64.513h5.728c0.505,0,0.984-0.231,1.294-0.629   S93.786,62.659,93.223,61.662z M73.825,49.484c-2.036,0-3.682-1.649-3.682-3.682c0-2.036,1.646-3.682,3.682-3.682   c2.033,0,3.682,1.646,3.682,3.682C77.507,47.835,75.858,49.484,73.825,49.484z"/></g><text x="0" y="115" fill="#000000" font-size="5px" font-weight="bold" font-family="'Helvetica Neue', Helvetica, Arial-Unicode, Arial, Sans-serif">Created by Miguel C Balandrano</text><text x="0" y="120" fill="#000000" font-size="5px" font-weight="bold" font-family="'Helvetica Neue', Helvetica, Arial-Unicode, Arial, Sans-serif">from the Noun Project</text></svg>