<svg xmlns="http://www.w3.org/2000/svg" xmlns:xlink="http://www.w3.org/1999/xlink" version="1.1" x="0px" y="0px" viewBox="0 0 32 40" enable-background="new 0 0 32 32" xml:space="preserve"><path d="M30,0H8C6.895,0,6,0.895,6,2v8H1.999C0.894,10,0,10.918,0,12.023v15C0,29.234,1.79,32,4,32h24c2.207,0,4-2.766,4-4.977V2  C32,0.895,31.105,0,30,0z M6,27.023c0,1.104-0.895,2-2,2s-2-0.896-2-2V12h4V27.023z M26,26H12v-2h14V26z M26,20H12v-2h14V20z M26,14  H12V8h14V14z"/><text x="0" y="47" fill="#000000" font-size="5px" font-weight="bold" font-family="'Helvetica Neue', Helvetica, Arial-Unicode, Arial, Sans-serif">Created by Zlatko Najdenovski</text><text x="0" y="52" fill="#000000" font-size="5px" font-weight="bold" font-family="'Helvetica Neue', Helvetica, Arial-Unicode, Arial, Sans-serif">from the Noun Project</text></svg>